<?xml version="1.0" encoding="utf-8"?>
<!-- Generator: Adobe Illustrator 16.0.0, SVG Export Plug-In . SVG Version: 6.00 Build 0)  -->
<!DOCTYPE svg PUBLIC "-//W3C//DTD SVG 1.1//EN" "http://www.w3.org/Graphics/SVG/1.1/DTD/svg11.dtd">
<svg version="1.1" xmlns="http://www.w3.org/2000/svg" xmlns:xlink="http://www.w3.org/1999/xlink" x="0px" y="0px" width="1500px"
	 height="1500px" viewBox="0 0 1500 1500" style="enable-background:new 0 0 1500 1500;" xml:space="preserve">
<style type="text/css">
<![CDATA[
	.st0{opacity:0.3;fill:#838BC5;stroke:#1B1464;stroke-width:10;stroke-miterlimit:10;}
	.st1{opacity:0.3;fill:#FFFFFF;stroke:#1B1464;stroke-width:10;stroke-miterlimit:10;}
	.st2{opacity:0.3;fill:#B3B3B3;stroke:#1B1464;stroke-width:9;stroke-miterlimit:10;}
	.st3{opacity:0.3;fill:#CCCCCC;stroke:#1B1464;stroke-width:9;stroke-miterlimit:10;}
	.st4{opacity:0.3;fill:none;stroke:#1B1464;stroke-width:9;stroke-miterlimit:10;}
	.st5{opacity:0.3;fill:#838BC5;stroke:#1B1464;stroke-width:9;stroke-miterlimit:10;}
	.st6{fill:none;stroke:#FFFFFF;stroke-width:10;stroke-miterlimit:10;}
	.st7{fill:#F2F2F2;}
	.st8{opacity:0.3;fill:#65C8D0;stroke:#1B1464;stroke-width:9;stroke-miterlimit:10;}
	.st9{opacity:0.3;fill:#666666;stroke:#1B1464;stroke-width:10;stroke-miterlimit:10;}
	.st10{opacity:0.3;fill:#BA9BC9;stroke:#1B1464;stroke-width:10;stroke-miterlimit:10;}
	.st11{opacity:0.3;fill:#4D4D4D;stroke:#1B1464;stroke-width:9;stroke-miterlimit:10;}
	.st12{opacity:0.3;fill:#E6E6E6;stroke:#1B1464;stroke-width:9;stroke-miterlimit:10;}
	.st13{fill:#666666;}
	.st14{opacity:0.3;fill:none;stroke:#1B1464;stroke-width:20;stroke-miterlimit:10;}
	.st15{fill:none;stroke:#FFFFFF;stroke-width:10;stroke-miterlimit:10;stroke-dasharray:10.158,0,30.474,30.474;}
	.st16{opacity:0.3;fill:none;stroke:#333333;stroke-width:9;stroke-miterlimit:10;}
	.st17{display:none;}
	.st18{opacity:0.3;fill:#BA9BC9;stroke:#1B1464;stroke-width:9;stroke-miterlimit:10;}
	.st19{fill:none;stroke:#FFFFFF;stroke-width:10;stroke-miterlimit:10;stroke-dasharray:30.474,30.474;}
	.st20{opacity:0.3;fill:#22B573;}
	.st21{opacity:0.3;fill:#333333;stroke:#1B1464;stroke-width:9;stroke-miterlimit:10;}
]]>
</style>
<g id="Layer_1" class="st17">
	
		<image style="display:inline;overflow:visible;" width="2611" height="1780" xlink:href="C:\Users\lenovo\Desktop\building.jpg"  transform="matrix(0.3295 0 0 0.3295 -821.0342 51.897)">
	</image>
</g>
<g id="Layer_2">
	<rect x="518.549" y="973.676" class="st12" width="471.401" height="283.068"/>
	<rect x="503.711" y="940.574" class="st3" width="498.794" height="33.102"/>
	<rect x="518.549" y="700.879" class="st12" width="471.401" height="239.695"/>
	<rect x="503.711" y="672.344" class="st2" width="498.794" height="28.535"/>
	<polygon class="st10" points="951.143,520.537 565.348,520.537 510.56,672.344 994.517,672.344 	"/>
	<rect x="592.741" y="743.111" class="st0" width="103.868" height="146.1"/>
	<rect x="582.468" y="889.211" class="st9" width="123.272" height="22.828"/>
	<rect x="592.741" y="831" class="st1" width="103.868" height="58.211"/>
	<rect x="818.168" y="743.111" class="st0" width="103.867" height="146.1"/>
	<rect x="807.895" y="889.211" class="st9" width="123.272" height="22.828"/>
	<rect x="818.168" y="831" class="st1" width="103.867" height="58.211"/>
	<rect x="754.25" y="1028.463" class="st4" width="193.469" height="163.221"/>
	<rect x="754.25" y="1028.463" class="st5" width="53.645" height="163.221"/>
	<rect x="890.649" y="1028.463" class="st5" width="53.645" height="163.221"/>
	<rect x="754.25" y="1028.463" class="st11" width="193.469" height="15.98"/>
	<rect x="754.25" y="1175.703" class="st21" width="190.044" height="15.98"/>
	<rect x="543.661" y="973.676" class="st3" width="152.948" height="283.068"/>
	<rect x="543.661" y="973.676" class="st4" width="152.948" height="47.938"/>
	<rect x="563.065" y="986.23" class="st18" width="114.14" height="20.545"/>
	<rect x="563.065" y="1036.453" class="st8" width="114.14" height="155.23"/>
	<rect x="563.065" y="1203.098" class="st4" width="114.14" height="53.646"/>
	<rect x="499.146" y="1229.922" class="st3" width="44.515" height="26.822"/>
	<line class="st16" x1="0" y1="1256.174" x2="1500" y2="1256.174"/>
	<line class="st14" x1="1293.516" y1="1085.946" x2="1293.516" y2="1256.174"/>
	<path class="st20" d="M1419.592,961.143c25.467,64.867-56.492,126.18-126.18,126.18s-150.934-61.036-126.18-126.18
		c31.834-83.775,56.492-126.18,126.18-126.18S1394.565,897.397,1419.592,961.143z"/>
	<path class="st7" d="M464.87,358.902H39.229c-0.009-0.381-0.009-0.771-0.009-1.152c0-85.598,69.393-154.991,154.991-154.991
		c51.724,0,97.532,25.343,125.69,64.283c13.156-6.236,27.863-9.718,43.392-9.718C419.391,257.324,464.87,302.804,464.87,358.902z"/>
	<path class="st7" d="M1083.4,455.9h255.039c0.006-0.195,0.006-0.395,0.006-0.589c0-43.723-41.58-79.168-92.869-79.168
		c-30.992,0-58.44,12.945-75.313,32.835c-7.883-3.186-16.694-4.964-26-4.964C1110.65,404.014,1083.4,427.246,1083.4,455.9z"/>
	<rect y="1256.174" class="st13" width="1500" height="243.826"/>
	<g>
		<g>
			<line class="st19" x1="-43.211" y1="1392.381" x2="1.5" y2="1392.381"/>
			<line class="st15" x1="17.737" y1="1392.381" x2="1637.938" y2="1392.381"/>
		</g>
	</g>
</g>
</svg>
